<?xml version="1.0" encoding="UTF-8" standalone="no"?>
<!DOCTYPE svg PUBLIC "-//W3C//DTD SVG 1.1//EN"
 "http://www.w3.org/Graphics/SVG/1.1/DTD/svg11.dtd">
<!-- Generated by graphviz version 2.38.0 (20140413.2041)
 -->
<!-- Title: network_graph Pages: 1 -->
<svg width="591pt" height="719pt"
 viewBox="0.00 0.00 591.03 719.00" xmlns="http://www.w3.org/2000/svg" xmlns:xlink="http://www.w3.org/1999/xlink">
<g id="graph0" class="graph" transform="scale(1 1) rotate(0) translate(4 715)">
<title>network_graph</title>
<polygon fill="white" stroke="none" points="-4,4 -4,-715 587.035,-715 587.035,4 -4,4"/>
<!-- Block448 -->
<g id="node1" class="node"><title>Block448</title>
<polygon fill="lightgray" stroke="black" stroke-width="4" points="173,-191 79,-191 79,-119 173,-119 173,-191"/>
<text text-anchor="middle" x="126" y="-158.4" font-family="Times New Roman,serif" font-size="12.00">Dense</text>
<text text-anchor="middle" x="126" y="-145.4" font-family="Times New Roman,serif" font-size="12.00">outdense_pi()</text>
</g>
<!-- Block448_Output_0 -->
<g id="node5" class="node"><title>Block448_Output_0</title>
<polygon fill="lightgray" stroke="black" stroke-width="4" points="130.633,-0.0986735 133.701,-0.29575 136.737,-0.590689 139.729,-0.982683 142.664,-1.47066 145.532,-2.05327 148.32,-2.72894 151.018,-3.49579 153.615,-4.35174 156.103,-5.29443 158.471,-6.32129 160.713,-7.42949 162.819,-8.616 164.784,-9.87757 166.602,-11.2107 168.268,-12.6119 169.777,-14.0771 171.126,-15.6024 172.314,-17.1836 173.338,-18.8164 174.198,-20.4963 174.895,-22.2187 175.428,-23.9788 175.799,-25.7719 176.012,-27.5931 176.07,-29.4373 175.975,-31.2994 175.733,-33.1745 175.348,-35.0573 174.826,-36.9427 174.172,-38.8255 173.392,-40.7006 172.493,-42.5627 171.481,-44.4069 170.364,-46.2281 169.147,-48.0212 167.837,-49.7813 166.442,-51.5037 164.968,-53.1836 163.421,-54.8164 161.809,-56.3976 160.136,-57.9229 158.41,-59.3881 156.635,-60.7893 154.817,-62.1224 152.961,-63.384 151.072,-64.5705 149.154,-65.6787 147.21,-66.7056 145.245,-67.6483 143.261,-68.5042 141.262,-69.2711 139.251,-69.9467 137.228,-70.5293 135.197,-71.0173 133.16,-71.4093 131.118,-71.7042 129.072,-71.9013 127.024,-72 124.976,-72 122.928,-71.9013 120.882,-71.7042 118.84,-71.4093 116.803,-71.0173 114.772,-70.5293 112.749,-69.9467 110.738,-69.2711 108.739,-68.5042 106.755,-67.6483 104.79,-66.7056 102.846,-65.6787 100.928,-64.5705 99.0386,-63.384 97.1827,-62.1224 95.3649,-60.7893 93.5901,-59.3881 91.8637,-57.9229 90.1912,-56.3976 88.5786,-54.8164 87.0321,-53.1836 85.5579,-51.5037 84.1628,-49.7813 82.8533,-48.0212 81.6363,-46.2281 80.5186,-44.4069 79.5069,-42.5627 78.608,-40.7006 77.8284,-38.8255 77.1743,-36.9427 76.652,-35.0573 76.267,-33.1745 76.0248,-31.2994 75.9302,-29.4373 75.9875,-27.5931 76.2005,-25.7719 76.5723,-23.9788 77.1055,-22.2187 77.8016,-20.4963 78.6616,-18.8164 79.6859,-17.1836 80.8735,-15.6024 82.2232,-14.0771 83.7324,-12.6119 85.398,-11.2107 87.2158,-9.87757 89.1809,-8.616 91.2873,-7.42949 93.5285,-6.32129 95.897,-5.29443 98.3845,-4.35174 100.982,-3.49579 103.68,-2.72894 106.468,-2.05327 109.336,-1.47066 112.271,-0.982683 115.263,-0.590689 118.299,-0.29575 121.367,-0.0986735 124.453,-3.55271e-013 127.547,-3.69482e-013 130.633,-0.0986735"/>
<text text-anchor="middle" x="126" y="-39.4" font-family="Times New Roman,serif" font-size="12.00">outdense_pi</text>
<text text-anchor="middle" x="126" y="-26.4" font-family="Times New Roman,serif" font-size="12.00">[#](&#45;2,)</text>
</g>
<!-- Block448&#45;&gt;Block448_Output_0 -->
<g id="edge4" class="edge"><title>Block448&#45;&gt;Block448_Output_0</title>
<path fill="none" stroke="black" d="M126,-118.896C126,-107.327 126,-94.2965 126,-82.0893"/>
<polygon fill="black" stroke="black" points="129.5,-82.079 126,-72.0791 122.5,-82.0791 129.5,-82.079"/>
<text text-anchor="middle" x="140" y="-93" font-family="Times New Roman,serif" font-size="10.00">[#](&#45;2,)</text>
</g>
<!-- Parameter307 -->
<g id="node2" class="node"><title>Parameter307</title>
<polygon fill="lightgray" stroke="black" points="72,-306.5 0,-306.5 0,-263.5 72,-263.5 72,-306.5"/>
<text text-anchor="middle" x="36" y="-288.4" font-family="Times New Roman,serif" font-size="12.00">W</text>
<text text-anchor="middle" x="36" y="-275.4" font-family="Times New Roman,serif" font-size="12.00">(256, 5)</text>
</g>
<!-- Parameter307&#45;&gt;Block448 -->
<g id="edge1" class="edge"><title>Parameter307&#45;&gt;Block448</title>
<path fill="none" stroke="black" d="M50.4601,-263.435C62.5672,-246.216 80.2586,-221.054 95.4775,-199.41"/>
<polygon fill="black" stroke="black" points="98.4998,-201.196 101.389,-191.003 92.7736,-197.17 98.4998,-201.196"/>
<text text-anchor="middle" x="101.5" y="-223" font-family="Times New Roman,serif" font-size="10.00">W</text>
<text text-anchor="middle" x="101.5" y="-212" font-family="Times New Roman,serif" font-size="10.00">(256, 5)</text>
</g>
<!-- Parameter308 -->
<g id="node3" class="node"><title>Parameter308</title>
<polygon fill="lightgray" stroke="black" points="162,-306.5 90,-306.5 90,-263.5 162,-263.5 162,-306.5"/>
<text text-anchor="middle" x="126" y="-288.4" font-family="Times New Roman,serif" font-size="12.00">b</text>
<text text-anchor="middle" x="126" y="-275.4" font-family="Times New Roman,serif" font-size="12.00">(5,)</text>
</g>
<!-- Parameter308&#45;&gt;Block448 -->
<g id="edge2" class="edge"><title>Parameter308&#45;&gt;Block448</title>
<path fill="none" stroke="black" d="M126,-263.435C126,-246.673 126,-222.385 126,-201.141"/>
<polygon fill="black" stroke="black" points="129.5,-201.003 126,-191.003 122.5,-201.003 129.5,-201.003"/>
<text text-anchor="middle" x="132.5" y="-223" font-family="Times New Roman,serif" font-size="10.00">b</text>
<text text-anchor="middle" x="132.5" y="-212" font-family="Times New Roman,serif" font-size="10.00">(5,)</text>
</g>
<!-- Block404 -->
<g id="node4" class="node"><title>Block404</title>
<polygon fill="lightgray" stroke="black" stroke-width="4" points="274,-321 180,-321 180,-249 274,-249 274,-321"/>
<text text-anchor="middle" x="227" y="-288.4" font-family="Times New Roman,serif" font-size="12.00">Dense</text>
<text text-anchor="middle" x="227" y="-275.4" font-family="Times New Roman,serif" font-size="12.00">dense_pi()</text>
</g>
<!-- Block404&#45;&gt;Block448 -->
<g id="edge3" class="edge"><title>Block404&#45;&gt;Block448</title>
<path fill="none" stroke="black" d="M199.134,-248.685C187.101,-233.435 172.907,-215.446 160.24,-199.393"/>
<polygon fill="black" stroke="black" points="162.717,-196.882 153.775,-191.2 157.222,-201.219 162.717,-196.882"/>
<text text-anchor="middle" x="201.5" y="-223" font-family="Times New Roman,serif" font-size="10.00">dense_pi</text>
<text text-anchor="middle" x="201.5" y="-212" font-family="Times New Roman,serif" font-size="10.00">[#](&#45;2,)</text>
</g>
<!-- Parameter287 -->
<g id="node6" class="node"><title>Parameter287</title>
<polygon fill="lightgray" stroke="black" points="173,-436.5 89,-436.5 89,-393.5 173,-393.5 173,-436.5"/>
<text text-anchor="middle" x="131" y="-418.4" font-family="Times New Roman,serif" font-size="12.00">W</text>
<text text-anchor="middle" x="131" y="-405.4" font-family="Times New Roman,serif" font-size="12.00">(32, 9, 9, 256)</text>
</g>
<!-- Parameter287&#45;&gt;Block404 -->
<g id="edge5" class="edge"><title>Parameter287&#45;&gt;Block404</title>
<path fill="none" stroke="black" d="M139.871,-393.198C147.07,-377.516 158.116,-355.898 171,-339 173.675,-335.492 176.589,-332.009 179.636,-328.603"/>
<polygon fill="black" stroke="black" points="182.203,-330.982 186.479,-321.288 177.091,-326.2 182.203,-330.982"/>
<text text-anchor="middle" x="197" y="-353" font-family="Times New Roman,serif" font-size="10.00">W</text>
<text text-anchor="middle" x="197" y="-342" font-family="Times New Roman,serif" font-size="10.00">(32, 9, 9, 256)</text>
</g>
<!-- Parameter288 -->
<g id="node7" class="node"><title>Parameter288</title>
<polygon fill="lightgray" stroke="black" points="263,-436.5 191,-436.5 191,-393.5 263,-393.5 263,-436.5"/>
<text text-anchor="middle" x="227" y="-418.4" font-family="Times New Roman,serif" font-size="12.00">b</text>
<text text-anchor="middle" x="227" y="-405.4" font-family="Times New Roman,serif" font-size="12.00">(256,)</text>
</g>
<!-- Parameter288&#45;&gt;Block404 -->
<g id="edge6" class="edge"><title>Parameter288&#45;&gt;Block404</title>
<path fill="none" stroke="black" d="M227,-393.435C227,-376.673 227,-352.385 227,-331.141"/>
<polygon fill="black" stroke="black" points="230.5,-331.003 227,-321.003 223.5,-331.003 230.5,-331.003"/>
<text text-anchor="middle" x="238" y="-353" font-family="Times New Roman,serif" font-size="10.00">b</text>
<text text-anchor="middle" x="238" y="-342" font-family="Times New Roman,serif" font-size="10.00">(256,)</text>
</g>
<!-- Block368 -->
<g id="node8" class="node"><title>Block368</title>
<polygon fill="lightgray" stroke="black" stroke-width="4" points="375,-451 281,-451 281,-379 375,-379 375,-451"/>
<text text-anchor="middle" x="328" y="-418.4" font-family="Times New Roman,serif" font-size="12.00">Convolution</text>
<text text-anchor="middle" x="328" y="-405.4" font-family="Times New Roman,serif" font-size="12.00">conv2_pi()</text>
</g>
<!-- Block368&#45;&gt;Block404 -->
<g id="edge7" class="edge"><title>Block368&#45;&gt;Block404</title>
<path fill="none" stroke="black" d="M300.134,-378.685C288.101,-363.435 273.907,-345.446 261.24,-329.393"/>
<polygon fill="black" stroke="black" points="263.717,-326.882 254.775,-321.2 258.222,-331.219 263.717,-326.882"/>
<text text-anchor="middle" x="302" y="-353" font-family="Times New Roman,serif" font-size="10.00">conv2_pi</text>
<text text-anchor="middle" x="302" y="-342" font-family="Times New Roman,serif" font-size="10.00">[#](&#45;2,)</text>
</g>
<!-- Parameter267 -->
<g id="node9" class="node"><title>Parameter267</title>
<polygon fill="lightgray" stroke="black" points="274,-566.5 196,-566.5 196,-523.5 274,-523.5 274,-566.5"/>
<text text-anchor="middle" x="235" y="-548.4" font-family="Times New Roman,serif" font-size="12.00">W</text>
<text text-anchor="middle" x="235" y="-535.4" font-family="Times New Roman,serif" font-size="12.00">(32, 16, 4, 4)</text>
</g>
<!-- Parameter267&#45;&gt;Block368 -->
<g id="edge8" class="edge"><title>Parameter267&#45;&gt;Block368</title>
<path fill="none" stroke="black" d="M244.73,-523.405C252.507,-507.831 264.195,-486.258 277,-469 279.525,-465.597 282.253,-462.185 285.088,-458.824"/>
<polygon fill="black" stroke="black" points="287.895,-460.931 291.853,-451.103 282.63,-456.318 287.895,-460.931"/>
<text text-anchor="middle" x="300.5" y="-483" font-family="Times New Roman,serif" font-size="10.00">W</text>
<text text-anchor="middle" x="300.5" y="-472" font-family="Times New Roman,serif" font-size="10.00">(32, 16, 4, 4)</text>
</g>
<!-- Parameter268 -->
<g id="node10" class="node"><title>Parameter268</title>
<polygon fill="lightgray" stroke="black" points="364,-566.5 292,-566.5 292,-523.5 364,-523.5 364,-566.5"/>
<text text-anchor="middle" x="328" y="-548.4" font-family="Times New Roman,serif" font-size="12.00">b</text>
<text text-anchor="middle" x="328" y="-535.4" font-family="Times New Roman,serif" font-size="12.00">(32, 1, 1)</text>
</g>
<!-- Parameter268&#45;&gt;Block368 -->
<g id="edge9" class="edge"><title>Parameter268&#45;&gt;Block368</title>
<path fill="none" stroke="black" d="M328,-523.435C328,-506.673 328,-482.385 328,-461.141"/>
<polygon fill="black" stroke="black" points="331.5,-461.003 328,-451.003 324.5,-461.003 331.5,-461.003"/>
<text text-anchor="middle" x="345" y="-483" font-family="Times New Roman,serif" font-size="10.00">b</text>
<text text-anchor="middle" x="345" y="-472" font-family="Times New Roman,serif" font-size="10.00">(32, 1, 1)</text>
</g>
<!-- Block340 -->
<g id="node11" class="node"><title>Block340</title>
<polygon fill="lightgray" stroke="black" stroke-width="4" points="476,-581 382,-581 382,-509 476,-509 476,-581"/>
<text text-anchor="middle" x="429" y="-548.4" font-family="Times New Roman,serif" font-size="12.00">Convolution</text>
<text text-anchor="middle" x="429" y="-535.4" font-family="Times New Roman,serif" font-size="12.00">conv1_pi()</text>
</g>
<!-- Block340&#45;&gt;Block368 -->
<g id="edge10" class="edge"><title>Block340&#45;&gt;Block368</title>
<path fill="none" stroke="black" d="M401.134,-508.685C389.101,-493.435 374.907,-475.446 362.24,-459.393"/>
<polygon fill="black" stroke="black" points="364.717,-456.882 355.775,-451.2 359.222,-461.219 364.717,-456.882"/>
<text text-anchor="middle" x="403" y="-483" font-family="Times New Roman,serif" font-size="10.00">conv1_pi</text>
<text text-anchor="middle" x="403" y="-472" font-family="Times New Roman,serif" font-size="10.00">[#](&#45;2,)</text>
</g>
<!-- Parameter247 -->
<g id="node12" class="node"><title>Parameter247</title>
<polygon fill="lightgray" stroke="black" points="375,-696.5 303,-696.5 303,-653.5 375,-653.5 375,-696.5"/>
<text text-anchor="middle" x="339" y="-678.4" font-family="Times New Roman,serif" font-size="12.00">W</text>
<text text-anchor="middle" x="339" y="-665.4" font-family="Times New Roman,serif" font-size="12.00">(16, 1, 8, 8)</text>
</g>
<!-- Parameter247&#45;&gt;Block340 -->
<g id="edge11" class="edge"><title>Parameter247&#45;&gt;Block340</title>
<path fill="none" stroke="black" d="M349.418,-653.25C357.527,-637.79 369.476,-616.43 382,-599 384.422,-595.629 387.022,-592.226 389.711,-588.858"/>
<polygon fill="black" stroke="black" points="392.451,-591.037 396.107,-581.092 387.048,-586.586 392.451,-591.037"/>
<text text-anchor="middle" x="403.5" y="-613" font-family="Times New Roman,serif" font-size="10.00">W</text>
<text text-anchor="middle" x="403.5" y="-602" font-family="Times New Roman,serif" font-size="10.00">(16, 1, 8, 8)</text>
</g>
<!-- Parameter248 -->
<g id="node13" class="node"><title>Parameter248</title>
<polygon fill="lightgray" stroke="black" points="465,-696.5 393,-696.5 393,-653.5 465,-653.5 465,-696.5"/>
<text text-anchor="middle" x="429" y="-678.4" font-family="Times New Roman,serif" font-size="12.00">b</text>
<text text-anchor="middle" x="429" y="-665.4" font-family="Times New Roman,serif" font-size="12.00">(16, 1, 1)</text>
</g>
<!-- Parameter248&#45;&gt;Block340 -->
<g id="edge12" class="edge"><title>Parameter248&#45;&gt;Block340</title>
<path fill="none" stroke="black" d="M429,-653.435C429,-636.673 429,-612.385 429,-591.141"/>
<polygon fill="black" stroke="black" points="432.5,-591.003 429,-581.003 425.5,-591.003 432.5,-591.003"/>
<text text-anchor="middle" x="446" y="-613" font-family="Times New Roman,serif" font-size="10.00">b</text>
<text text-anchor="middle" x="446" y="-602" font-family="Times New Roman,serif" font-size="10.00">(16, 1, 1)</text>
</g>
<!-- Placeholder0 -->
<g id="node14" class="node"><title>Placeholder0</title>
<polygon fill="lightgray" stroke="black" stroke-width="4" points="537.633,-639.099 540.701,-639.296 543.737,-639.591 546.729,-639.983 549.664,-640.471 552.532,-641.053 555.32,-641.729 558.018,-642.496 560.615,-643.352 563.103,-644.294 565.471,-645.321 567.713,-646.429 569.819,-647.616 571.784,-648.878 573.602,-650.211 575.268,-651.612 576.777,-653.077 578.126,-654.602 579.314,-656.184 580.338,-657.816 581.198,-659.496 581.895,-661.219 582.428,-662.979 582.799,-664.772 583.012,-666.593 583.07,-668.437 582.975,-670.299 582.733,-672.175 582.348,-674.057 581.826,-675.943 581.172,-677.825 580.392,-679.701 579.493,-681.563 578.481,-683.407 577.364,-685.228 576.147,-687.021 574.837,-688.781 573.442,-690.504 571.968,-692.184 570.421,-693.816 568.809,-695.398 567.136,-696.923 565.41,-698.388 563.635,-699.789 561.817,-701.122 559.961,-702.384 558.072,-703.571 556.154,-704.679 554.21,-705.706 552.245,-706.648 550.261,-707.504 548.262,-708.271 546.251,-708.947 544.228,-709.529 542.197,-710.017 540.16,-710.409 538.118,-710.704 536.072,-710.901 534.024,-711 531.976,-711 529.928,-710.901 527.882,-710.704 525.84,-710.409 523.803,-710.017 521.772,-709.529 519.749,-708.947 517.738,-708.271 515.739,-707.504 513.755,-706.648 511.79,-705.706 509.846,-704.679 507.928,-703.571 506.039,-702.384 504.183,-701.122 502.365,-699.789 500.59,-698.388 498.864,-696.923 497.191,-695.398 495.579,-693.816 494.032,-692.184 492.558,-690.504 491.163,-688.781 489.853,-687.021 488.636,-685.228 487.519,-683.407 486.507,-681.563 485.608,-679.701 484.828,-677.825 484.174,-675.943 483.652,-674.057 483.267,-672.175 483.025,-670.299 482.93,-668.437 482.988,-666.593 483.201,-664.772 483.572,-662.979 484.105,-661.219 484.802,-659.496 485.662,-657.816 486.686,-656.184 487.874,-654.602 489.223,-653.077 490.732,-651.612 492.398,-650.211 494.216,-648.878 496.181,-647.616 498.287,-646.429 500.529,-645.321 502.897,-644.294 505.385,-643.352 507.982,-642.496 510.68,-641.729 513.468,-641.053 516.336,-640.471 519.271,-639.983 522.263,-639.591 525.299,-639.296 528.367,-639.099 531.453,-639 534.547,-639 537.633,-639.099"/>
<text text-anchor="middle" x="533" y="-684.9" font-family="Times New Roman,serif" font-size="12.00">Placeholder</text>
<text text-anchor="middle" x="533" y="-671.9" font-family="Times New Roman,serif" font-size="12.00">keep</text>
<text text-anchor="middle" x="533" y="-658.9" font-family="Times New Roman,serif" font-size="12.00">[#](&#45;2,)</text>
</g>
<!-- Placeholder0&#45;&gt;Block340 -->
<g id="edge13" class="edge"><title>Placeholder0&#45;&gt;Block340</title>
<path fill="none" stroke="black" d="M507.292,-642.36C494.252,-626.31 478.217,-606.575 464.063,-589.154"/>
<polygon fill="black" stroke="black" points="466.731,-586.888 457.709,-581.334 461.298,-591.302 466.731,-586.888"/>
<text text-anchor="middle" x="501" y="-613" font-family="Times New Roman,serif" font-size="10.00">keep</text>
<text text-anchor="middle" x="501" y="-602" font-family="Times New Roman,serif" font-size="10.00">[#](&#45;2,)</text>
</g>
</g>
</svg>
